<?xml version="1.0" encoding="UTF-8" standalone="no"?>
<!-- Created with Inkscape (http://www.inkscape.org/) -->

<svg
   width="300"
   height="200"
   viewBox="0 0 79.375001 52.916667"
   version="1.1"
   id="svg1"
   inkscape:version="1.3.2 (1:1.3.2+202404261509+091e20ef0f)"
   sodipodi:docname="sampleimage.svg"
   xmlns:inkscape="http://www.inkscape.org/namespaces/inkscape"
   xmlns:sodipodi="http://sodipodi.sourceforge.net/DTD/sodipodi-0.dtd"
   xmlns="http://www.w3.org/2000/svg"
   xmlns:svg="http://www.w3.org/2000/svg">
  <sodipodi:namedview
     id="namedview1"
     pagecolor="#ffffff"
     bordercolor="#000000"
     borderopacity="0.25"
     inkscape:showpageshadow="2"
     inkscape:pageopacity="0.0"
     inkscape:pagecheckerboard="0"
     inkscape:deskcolor="#d1d1d1"
     inkscape:document-units="mm"
     inkscape:zoom="2.0359279"
     inkscape:cx="180.75297"
     inkscape:cy="182.22649"
     inkscape:window-width="1870"
     inkscape:window-height="1011"
     inkscape:window-x="0"
     inkscape:window-y="0"
     inkscape:window-maximized="1"
     inkscape:current-layer="layer1" />
  <defs
     id="defs1" />
  <g
     inkscape:label="Layer 1"
     inkscape:groupmode="layer"
     id="layer1">
    <path
       style="fill:none;stroke:#000000;stroke-width:0.796999"
       d="M 0.54064191,3.1682125 78.724575,2.3026778"
       id="path1"
       sodipodi:nodetypes="cc" />
    <path
       style="fill:none;stroke:#000000;stroke-width:0.796999"
       d="M 3.4169586,0.44266646 1.7285312,52.884935"
       id="path2"
       sodipodi:nodetypes="cc" />
    <path
       style="fill:none;stroke:#000000;stroke-width:0.796999"
       d="M 76.373669,50.181218 0.18884395,51.044213"
       id="path3"
       sodipodi:nodetypes="cc" />
    <path
       style="fill:none;stroke:#000000;stroke-width:0.796999"
       d="M 76.850856,1.4361278 74.666458,51.139142"
       id="path4" />
    <path
       style="fill:none;stroke:#000000;stroke-width:0.796999"
       d="m 25.607328,21.541726 c 1.036114,-0.292608 2.037001,-0.76789 3.084451,-1.031027 0.167069,-0.04197 0.349694,0.04189 0.516782,0 0.63045,-0.158076 -0.237924,-0.129957 0.249254,-0.129957 0.829586,0 0.544272,0.04319 1.411254,0.261945 0.126008,0.03179 0.261681,-0.02137 0.389871,0 0.883275,0.147212 1.662827,0.635801 2.187443,1.291956 0.283345,0.35439 0.567407,0.455197 0.261435,0.913254 -0.190334,0.284941 -0.991042,0.821548 -1.29957,0.9097 -2.738038,0.782296 0.386358,-0.181237 -1.169614,0.129958 -0.09498,0.019 -0.164368,0.114032 -0.259914,0.129955 -0.461769,0.07696 -3.141562,0.288449 -3.594127,0.129958 -0.339776,-0.118991 -0.555294,-0.402455 -0.850306,-0.590391 -0.17741,-0.11302 -0.562981,-0.417874 -0.637602,-0.644709 -0.127423,-0.387348 -0.202225,-0.976601 -0.289357,-1.370642 z"
       id="path5" />
    <path
       style="fill:none;stroke:#000000;stroke-width:0.796999"
       d="m 27.335044,25.377291 c 0.566223,-0.02622 0.926706,-0.571773 1.44222,-0.703088 0.08084,-0.02059 0.170805,0.0254 0.250269,0 0.568779,-0.181758 0.439114,-0.376674 1.14474,-0.376674 0.709695,0 1.723493,-0.170683 2.323491,0.128434 0.122595,0.06112 0.267346,0.0687 0.389872,0.129958 0.201218,0.10061 0.296937,0.343101 0.375147,0.499523 0.08091,0.161816 0.283155,0.233431 0.383781,0.38378 0.182692,0.272968 0.129958,0.703525 0.129958,1.033058 0,0.01151 0.03541,0.461714 0,0.508151 -0.883753,1.158981 -4.374683,2.181389 -5.698824,1.298048 -0.279429,-0.186407 -0.677883,-0.605313 -0.779742,-0.909698 -0.128434,-0.383799 0.256868,0.253857 0,-0.385302 -0.05824,-0.144926 -0.201907,-0.244856 -0.259915,-0.389872 -0.146259,-0.365648 0.192529,-0.967033 0.299003,-1.216318 z"
       id="path6" />
    <path
       style="fill:none;stroke:#000000;stroke-width:0.796999"
       d="m 28.364548,29.358042 c 0.424439,-0.03284 0.822832,-0.552127 1.210226,-0.68126 0.123288,-0.04109 0.262438,0.02548 0.389872,0 0.46508,-0.09302 0.935792,-0.307501 1.42293,-0.389871 0.645049,-0.10907 2.433833,-0.07964 3.062621,0.129958 0.142086,0.04736 0.261281,0.303749 0.387334,0.387839 0.07913,0.05279 0.202165,0.04855 0.255344,0.127421 0.03445,0.05109 0,0.572492 0,0.633539 0,0.465834 0.01654,0.876766 -0.259914,1.29145 -0.19904,0.298559 -0.07423,-0.05573 -0.389871,0.259914 -0.06849,0.06849 -0.04332,0.216595 -0.129958,0.259916 -0.7933,0.39665 -0.04513,-0.353767 -0.649785,0.129955 -0.486286,0.389027 -0.210772,0.344223 -0.649785,0.51983 -0.281638,0.112654 -0.623276,0.188306 -0.909701,0.259913 -0.168103,0.04203 -0.359024,-0.06455 -0.519827,0 -0.420346,0.168725 -0.598768,0.391985 -1.107683,0.262453 -0.262403,-0.06679 -0.502062,-0.190545 -0.763497,-0.25636 -0.125533,-0.0316 -0.272612,0.05798 -0.388349,0 -0.256806,-0.128659 -0.385819,-0.515014 -0.643186,-0.643189 -0.147146,-0.07328 -0.671909,-0.380298 -0.744208,-0.61628 -0.03502,-0.1143 -0.188423,-0.960226 -0.128434,-1.036103 0.17511,-0.221486 0.370581,-0.426083 0.555871,-0.639125 z"
       id="path7" />
    <path
       style="fill:none;stroke:#000000;stroke-width:0.796999"
       d="m 34.10632,24.584952 c 0.165349,0.760238 -0.222848,2.446512 0,3.109833 0.12614,0.375465 1.178843,1.951919 1.554408,2.076776 0.325591,0.108243 0.859457,0 1.198044,0 0.147442,0 1.373952,-0.335818 1.553901,-0.515766"
       id="path8" />
    <path
       style="fill:none;stroke:#000000;stroke-width:0.796999"
       d="m 31.489411,20.796397 c 1.018643,0.03727 2.325301,0.311712 3.27837,-0.01472 0.109728,-0.03758 0.05736,-0.344671 0.05736,-0.370073 0,-0.411515 -0.02925,-0.768045 0.129958,-1.166061 0.02275,-0.05688 0.110025,-0.07203 0.129956,-0.129957 0.08204,-0.238437 0,-0.72029 0,-0.971125 0,-1.067442 0.119099,-2.870534 0.519829,-3.85201 0.0011,-0.0028 0.255066,-0.253243 0.257376,-0.257884 0.31863,-0.640426 0.392861,-0.548706 0.781773,-1.170122 0.592915,-0.947372 1.113647,-1.821008 2.064594,-2.454971 0.300654,-0.200437 0.718177,-0.22822 1.027472,-0.38378 0.153289,-0.0771 0.355563,0.06403 0.514752,0 0.113676,-0.04572 0.150326,-0.2051187 0.259916,-0.2599137 0.258448,-0.129224 1.014331,0 1.291447,0 1.048115,0 2.688458,-0.3668487 3.187504,0.8807637 0.254813,0.637035 0.256006,3.034545 0.0021,3.625601 -0.124336,0.289361 -0.423892,0.621892 -0.519827,0.9097 -0.229862,0.689582 0.295738,-0.189664 -0.129958,0.519828 -0.231476,0.385791 -0.50143,0.594589 -0.649785,1.039657 -0.0274,0.08219 0.03875,0.182423 0,0.259914 -0.309097,0.61819 -1.174266,0.981654 -1.559486,1.559486 -0.40894,0.613409 -1.053724,1.188773 -1.380286,1.861027 -0.06999,0.144082 -0.182679,0.440118 -0.236564,0.601559 -0.01355,0.04061 0,0.08562 0,0.128434 0,0.08562 0.02727,0.175704 0,0.256868 -0.03902,0.116146 -0.203359,0.151223 -0.259913,0.259915 -0.0333,0.06399 -0.123865,0.795118 -0.123865,0.802079 0,0.367613 -0.194022,1.733549 0.116758,1.887932 0.224343,0.111445 0.507246,0.04126 0.722887,0.127926 0.705829,0.283662 0.156842,0.259913 0.518305,0.259913 1.520058,0 3.040115,0 4.560176,0 1.082804,0 2.165612,0 3.248419,0"
       id="path9" />
    <path
       style="fill:none;stroke:#000000;stroke-width:0.796999"
       d="m 46.971569,31.461003 c 0.06871,-0.448503 -2.358901,-0.315185 -2.58036,-0.425913 -0.10959,-0.0548 -0.157969,-0.19195 -0.259916,-0.259913 -0.193172,-0.128784 -0.928574,0 -1.169614,0 -1.431928,0 -2.492767,-0.07076 -3.815459,0.259913 -0.469206,0.117301 -1.997591,0.01299 -2.289987,0.129956 -0.11376,0.0455 -0.146153,0.21441 -0.259913,0.259916 -0.120664,0.04827 -0.262409,-0.02535 -0.389872,0 -0.09374,0.01863 -0.16361,0.105359 -0.256363,0.128434 -0.361984,0.09005 -0.81236,-0.117563 -1.165045,0 -0.253171,0.08439 -0.334364,0.128434 -0.584806,0.128434"
       id="path10" />
    <text
       xml:space="preserve"
       style="font-weight:bold;font-size:5.99152px;font-family:'Bad Script';-inkscape-font-specification:'Bad Script, Bold';text-align:center;text-anchor:middle;fill:#000000;stroke:#000000;stroke-width:0.297;stroke-dasharray:none"
       x="36.592651"
       y="44.608646"
       id="text11"
       transform="scale(1.0614918,0.94207039)"><tspan
         id="tspan11"
         style="stroke-width:0.297;stroke:#000000;fill:#000000;stroke-dasharray:none"
         x="36.592651"
         y="44.608646"
         sodipodi:role="line">library Webservice JOS . . . .</tspan></text>
  </g>
</svg>
